<svg xmlns="http://www.w3.org/2000/svg" width="256" height="256" viewBox="0 0 256 256">
  <defs>
  </defs>
  <path fill="#ffffff" d="M 110 50 L 150 50 Q 170 55 175 75 Q 178 90 170 100 Q 160 110 145 110 L 130 110 L 130 140 L 145 140 Q 170 140 175 160 Q 178 175 170 190 Q 160 205 140 210 L 100 210 L 100 190 L 140 190 Q 155 190 160 180 Q 163 170 160 160 L 100 160 Q 85 155 80 140 Q 75 125 80 110 L 130 110 Q 145 110 150 100 Q 153 90 150 80 L 110 80 Z"/>
  <path fill="#ffffff" d="M 95 45 L 105 45 L 105 220 L 95 220 Z"/>
  <path fill="#ffffff" d="M 155 45 L 165 45 L 165 220 L 155 220 Z"/>
</svg>
