<svg xmlns="http://www.w3.org/2000/svg" width="256" height="256" viewBox="0 0 256 256">
  <defs>
  </defs>
  <path fill="#ffffff" d="M 90 40 C 70 40 55 55 55 75 C 55 95 70 110 90 110 C 110 110 125 95 125 75 C 125 55 110 40 90 40 Z"/>
  <path fill="#ffffff" d="M 50 180 L 50 230 L 130 230 L 130 180 Q 130 150 90 150 Q 50 150 50 180 Z"/>
  <path fill="#ffffff" d="M 175 80 L 175 50 L 185 50 L 185 80 Z"/>
  <path fill="#ffffff" d="M 160 55 L 185 40 L 210 55 L 200 60 L 185 50 L 170 60 Z"/>
  <path fill="#ffffff" d="M 165 70 L 205 70 L 205 80 L 165 80 Z"/>
</svg>
