<?xml version="1.0" encoding="UTF-8" standalone="no"?><svg xmlns="http://www.w3.org/2000/svg" width="220" height="200" viewBox="0 0 220 200" version="1.1"><defs><style>.cls-1 { fill-rule: evenodd; }</style></defs><path id="IconGraphic" class="cls-1" d="M20 60 L200 60 L200 110 L20 110 Z M30 70 L190 70 L190 100 L30 100 Z M30 120 L210 120 L210 165 L30 165 Z M40 130 L200 130 L200 155 L40 155 Z M10 35 L190 35 L190 55 L10 55 Z M65 175 L65 195 L72 195 L72 180 L78 190 L82 190 L88 180 L88 195 L95 195 L95 175 L85 175 L80 185 L75 175 Z M105 175 L105 195 L130 195 L130 190 L120 190 L120 187 L128 187 L128 182 L120 182 L120 180 L130 180 L130 175 Z" style="fill:#ffffff;fill-rule:evenodd"/></svg>