<svg xmlns="http://www.w3.org/2000/svg" width="256" height="256" viewBox="0 0 256 256">
  <defs>
  </defs>
  <path fill="#ffffff" d="M 100 70 C 85 70 75 80 75 95 C 75 110 85 120 100 120 C 115 120 125 110 125 95 C 125 80 115 70 100 70 Z"/>
  <path fill="#ffffff" d="M 155 70 C 140 70 130 80 130 95 C 130 110 140 120 155 120 C 170 120 180 110 180 95 C 180 80 170 70 155 70 Z"/>
  <path fill="#ffffff" d="M 80 155 L 180 155 L 175 200 L 85 200 Z"/>
  <path fill="#ffffff" d="M 120 145 L 120 210 L 140 210 L 140 145 Z"/>
</svg>
