<svg xmlns="http://www.w3.org/2000/svg" width="256" height="256" viewBox="0 0 256 256">
  <defs>
  </defs>
  <path fill="#ffffff" d="M 128 40 C 75 40 30 85 30 140 C 30 195 75 240 128 240 C 180 240 225 195 225 140 C 225 85 180 40 128 40 M 128 60 L 128 140 L 128 160 Z"/>
  <path fill="#ffffff" d="M 195 125 L 225 145 L 215 160 L 185 140 Z"/>
  <path fill="#ffffff" d="M 120 135 C 120 128 124 124 128 124 C 132 124 136 128 136 135 C 136 142 132 146 128 146 C 124 146 120 142 120 135 Z"/>
  <path fill="#ffffff" d="M 118 110 L 138 110 L 138 115 L 118 115 Z"/>
</svg>
