<?xml version="1.0" encoding="UTF-8" standalone="no"?><svg xmlns="http://www.w3.org/2000/svg" width="200" height="200" viewBox="0 0 200 200" version="1.1"><defs><style>.cls-1 { fill-rule: evenodd; }</style></defs><path id="IconGraphic" class="cls-1" d="M45 55 A25 25 0 1 1 45 55.01 Z M45 55 A15 15 0 1 0 45 55.01 Z M145 145 A25 25 0 1 1 145 145.01 Z M145 145 A15 15 0 1 0 145 145.01 Z M145 35 L155 45 L35 165 L25 155 Z M170 80 L180 50 L190 80 Z M180 50 L180 130 L176 130 L176 50 Z M170 120 L180 150 L190 120 Z" style="fill:#ffffff;fill-rule:evenodd"/></svg>