<?xml version="1.0" encoding="UTF-8" standalone="no"?><svg xmlns="http://www.w3.org/2000/svg" width="200" height="220" viewBox="0 0 200 220" version="1.1"><defs><style>.cls-1 { fill-rule: evenodd; }</style></defs><path id="IconGraphic" class="cls-1" d="M100 80 A40 40 0 1 1 100 80.01 Z M100 80 A30 30 0 1 0 100 80.01 Z M70 55 L72 65 L128 65 L130 55 L70 55 Z M85 55 L87 45 L113 45 L115 55 L85 55 Z M96 120 L104 120 L104 145 L96 145 Z M96 155 L104 155 L104 175 L96 175 Z M80 185 L100 210 L120 185 Z M92 185 L108 185 L108 195 L92 195 Z" style="fill:#ffffff;fill-rule:evenodd"/></svg>