<?xml version="1.0" encoding="UTF-8" standalone="no"?><svg xmlns="http://www.w3.org/2000/svg" width="200" height="210" viewBox="0 0 200 210" version="1.1"><defs><style>.cls-1 { fill-rule: evenodd; }</style></defs><path id="IconGraphic" class="cls-1" d="M55 35 A20 20 0 1 1 55 35.01 Z M35 65 L75 65 L80 130 L65 130 L65 195 L45 195 L45 130 L30 130 Z M110 195 L110 140 L135 140 L135 195 Z M145 195 L145 110 L170 110 L170 195 Z M110 200 L190 200 L190 205 L110 205 Z M180 195 L180 70 L205 70 L205 195 Z M170 55 L195 50 L192 72 Z" style="fill:#ffffff;fill-rule:evenodd"/></svg>