<?xml version="1.0" encoding="UTF-8" standalone="no"?><svg xmlns="http://www.w3.org/2000/svg" width="230" height="220" viewBox="0 0 230 220" version="1.1"><defs><style>.cls-1 { fill-rule: evenodd; }</style></defs><path id="IconGraphic" class="cls-1" d="M15 200 L15 155 L40 155 L40 200 Z M52 200 L52 125 L77 125 L77 200 Z M89 200 L89 90 L114 90 L114 200 Z M126 200 L126 45 L151 45 L151 200 Z M163 175 L173 120 L193 50 L203 52 L185 122 L175 177 Z M188 35 L215 28 L210 55 Z M15 210 L215 210 L215 215 L15 215 Z" style="fill:#ffffff;fill-rule:evenodd"/></svg>